<svg xmlns="http://www.w3.org/2000/svg" id="Layer_1" height="512" viewBox="0 0 515.048 515.048" width="512"><g><path d="m496.863 61.306-27.447-18.356-15.192-34.06c-2.413-5.408-7.78-8.89-13.7-8.89-5.921 0-11.287 3.482-13.699 8.889l-15.192 34.06-10.876 7.274c-.712-.104-354.16-.175-354.16-.175-8.284 0-15 6.716-15 15 0 34.439 6.288 67.989 12.368 100.435 11.505 61.39 22.372 119.375-10.358 176.065-2.68 4.641-2.68 10.359 0 15 2.679 4.641 7.631 7.5 12.99 7.5h87.072l16.804 62.713c1.37 7.187 5.065 23.138 12.272 32.819 18.807 32.393 53.516 52.467 90.86 52.467h117c57.897 0 105-47.103 105-105v-157c0-24.813-20.187-45-45-45-2.554 0-5.068.222-7.525.64-1.039-5.068-2.105-10.112-3.154-15.068-6.438-30.407-12.618-59.601-11.656-88.269l3.362 2.248 15.192 34.06c2.412 5.407 7.779 8.889 13.699 8.889 5.921 0 11.287-3.482 13.699-8.889l15.192-34.06 27.447-18.356c4.162-2.784 6.661-7.461 6.661-12.468s-2.497-9.685-6.659-12.468zm-426.155 272.742c24.354-58.764 13.389-117.287 2.743-174.091-4.909-26.196-9.959-53.145-11.43-79.909h316.879c.3.652.652 1.278 1.042 1.88-3.758 27.345-.942 54.311 3.794 80.794-3.862-1.083-7.927-1.675-12.131-1.675-5.474 0-10.723.983-15.579 2.78-3.464-21.394-22.064-37.78-44.421-37.78-22.241 0-40.767 16.221-44.367 37.453-4.617-1.595-9.548-2.453-14.633-2.453-24.813 0-45 20.187-45 45v81.577c-1.646-3.028-3.418-6.298-5.336-9.847-16.342-30.237-41.731-33.172-58.511-26.498-20.765 8.261-32.013 30.953-26.164 52.782l8.035 29.986h-54.921zm374.897-84.001v157c0 41.355-33.645 75-75 75h-117c-26.93 0-51.956-14.646-65.313-38.224-.421-.743-.905-1.449-1.446-2.109-1.929-2.356-5.198-11.366-6.989-21.023-.072-.385-.158-.768-.26-1.146l-33.024-123.248c-2.178-8.129 2.638-14.9 8.276-17.143 1.435-.57 2.879-.851 4.323-.851 5.958 0 11.87 4.789 16.706 13.738 19.847 36.724 24.488 44.408 33.973 59.737 3.527 5.701 10.411 8.369 16.858 6.535 6.449-1.833 10.897-7.724 10.897-14.428v-137.838c0-8.271 6.729-15 15-15 6.249 0 11.791 3.906 14 9.667v79.333c0 8.284 6.716 15 15 15s15-6.716 15-15v-109c0-8.271 6.729-15 15-15s15 6.729 15 15v109c0 8.284 6.716 15 15 15s15-6.716 15-15v-74c0-8.271 6.729-15 15-15s14.999 6.729 14.999 15l.001 74c0 8.284 6.716 15 15 15s15-6.716 15-15v-35.335c2.209-5.761 7.751-9.666 14-9.666 8.271.001 14.999 6.73 14.999 15.001zm3.536-167.98c-2.35 1.572-4.208 3.776-5.36 6.358l-3.257 7.302-3.257-7.302c-1.152-2.582-3.011-4.786-5.36-6.357l-12.4-8.294 12.4-8.293c2.35-1.572 4.208-3.776 5.36-6.358l3.257-7.302 3.257 7.302c1.152 2.582 3.011 4.786 5.36 6.357l12.4 8.294z"></path><path d="m119.863 435.541-23.89-15.977-13.25-29.705c-2.412-5.407-7.778-8.889-13.699-8.889s-11.287 3.482-13.699 8.889l-13.25 29.705-23.89 15.976c-4.163 2.784-6.662 7.461-6.662 12.469 0 5.007 2.499 9.685 6.661 12.468l23.89 15.977 13.25 29.705c2.412 5.407 7.778 8.889 13.699 8.889s11.287-3.482 13.699-8.889l13.25-29.705 23.89-15.977c4.162-2.784 6.661-7.461 6.661-12.468s-2.498-9.685-6.66-12.468zm-44.165 18.382c-2.35 1.572-4.208 3.776-5.36 6.358l-1.314 2.947-1.314-2.947c-1.152-2.582-3.01-4.786-5.36-6.358l-8.843-5.914 8.843-5.914c2.351-1.572 4.208-3.776 5.36-6.358l1.314-2.947 1.314 2.946c1.152 2.582 3.01 4.786 5.36 6.358l8.843 5.914z"></path></g></svg>