<svg xmlns="http://www.w3.org/2000/svg" width="64" height="64" viewBox="0 0 64 64"><g id="Icon" transform="translate(-403 -1575)"><g id="Background" transform="translate(405 1577)" fill="#fff" stroke="#194c9b" stroke-width="2" stroke-dasharray="3 3"><circle cx="30" cy="30" r="30" stroke="none"></circle><circle cx="30" cy="30" r="31" fill="none"></circle></g><g id="toilet_1_" data-name="toilet (1)" transform="translate(396.979 1592)"><g id="Group_10" data-name="Group 10" transform="translate(25.021)"><g id="Group_9" data-name="Group 9"><path id="Path_19" data-name="Path 19" d="M36.828,10.865V5.276h.989V0h-12.8V5.276h.989V20.864h2.044v1.195a2.675,2.675,0,0,0,2.669,2.676h2.011V30H44.727V23.387a8.2,8.2,0,0,0,7.294-8.145V10.865H36.828ZM26.775,1.758h9.289V3.519H26.775Zm5.96,21.218H30.723a.918.918,0,0,1-.916-.918V20.864h2.926v2.112Zm11.116-1.3h-.877v6.566H34.488V19.106H27.764V5.276h7.31V16.142H50.2A6.432,6.432,0,0,1,43.85,21.676Zm6.418-7.292H36.828V12.623h13.44v1.761Z" transform="translate(-25.021)" fill="#194c9b"></path></g></g><g id="Group_12" data-name="Group 12" transform="translate(29.518 7.038)"><g id="Group_11" data-name="Group 11"><rect id="Rectangle_6" data-name="Rectangle 6" width="3.807" height="1.757" fill="#194c9b"></rect></g></g></g></g></svg>