<svg xmlns="http://www.w3.org/2000/svg" width="64" height="64" viewBox="0 0 64 64"><g id="Icon" transform="translate(-403 -1575)"><g id="Background" transform="translate(405 1577)" fill="#fff" stroke="#194c9b" stroke-width="2" stroke-dasharray="3 3"><circle cx="30" cy="30" r="30" stroke="none"></circle><circle cx="30" cy="30" r="31" fill="none"></circle></g><g id="pipe_1_" data-name="pipe (1)" transform="translate(420 1591.98)"><g id="Group_48" data-name="Group 48" transform="translate(0 0.011)"><path id="Path_22" data-name="Path 22" d="M30,5.586,24.425.011,21.937,2.5l-.981-.981L17.1,5.378l.981.981L15,9.436,11.923,6.359l.981-.981-3.86-3.86L8.063,2.5,5.575.011,0,5.586,2.488,8.074l-.981.981,3.86,3.86.981-.981,4.71,4.71v4.388H9.671v5.459h1.387V30.01h7.885V26.491h1.387V21.032H18.942V16.644l4.71-4.71.981.981,3.86-3.86-.981-.981Zm-27.514,0L5.575,2.5,6.82,3.742,3.731,6.831Zm2.881,4.843L3.993,9.055,9.044,4l1.374,1.374ZM17.185,28.252H12.815V26.491h4.369Zm1.387-3.518H11.428V22.79h7.143Zm-1.387-8.818v5.116H12.815V15.916L7.591,10.691,10.68,7.6,15,11.921,19.32,7.6l3.089,3.089Zm7.448-5.487L19.582,5.378,20.956,4l5.051,5.051ZM23.18,3.742,24.425,2.5l3.089,3.089L26.269,6.831Z" transform="translate(0 -0.011)" fill="#194c9b"></path></g></g></g></svg>