<svg xmlns="http://www.w3.org/2000/svg" width="80" height="80" viewBox="0 0 80 80"><g id="Icon" transform="translate(-525 -1414)"><circle id="Background" cx="40" cy="40" r="40" transform="translate(525 1414)" fill="#194c9b"></circle><g id="broom" transform="translate(545 1434)"><path id="Path_32" data-name="Path 32" d="M115.156,25.434a7.043,7.043,0,0,0-5.2-4V1.172a1.165,1.165,0,1,0-2.329,0V21.435a7.043,7.043,0,0,0-5.2,4l-5.916,12.9a1.178,1.178,0,0,0,.076,1.123,1.163,1.163,0,0,0,.981.54h2.824a5.628,5.628,0,0,0,4.036-1.69,6.482,6.482,0,0,0,8.731,0A5.628,5.628,0,0,0,117.191,40h2.824a1.163,1.163,0,0,0,.981-.54,1.178,1.178,0,0,0,.076-1.123l-5.916-12.9Zm-10.619.982a4.7,4.7,0,0,1,4.2-2.737l.053,0,.054,0a4.7,4.7,0,0,1,4.2,2.737l.548,1.195h-9.6Zm12.654,11.236A3.328,3.328,0,0,1,114.2,35.79a1.161,1.161,0,0,0-2.083,0,3.9,3.9,0,0,1-6.648,0,1.161,1.161,0,0,0-2.083,0,3.328,3.328,0,0,1-2.995,1.863h-1l3.53-7.7h11.751l3.53,7.7Z" transform="translate(-88.79 0)" fill="#fff"></path><path id="Path_33" data-name="Path 33" d="M379.952,4.5A5.865,5.865,0,0,1,376.3.843a1.185,1.185,0,0,0-2.265-.006,5.864,5.864,0,0,1-3.652,3.656,1.185,1.185,0,0,0-.006,2.265,5.865,5.865,0,0,1,3.656,3.652,1.185,1.185,0,0,0,2.265.006,5.864,5.864,0,0,1,3.652-3.656,1.185,1.185,0,0,0,.006-2.265ZM375.163,7.5a8.286,8.286,0,0,0-1.874-1.874,8.287,8.287,0,0,0,1.874-1.874,8.285,8.285,0,0,0,1.874,1.874A8.284,8.284,0,0,0,375.163,7.5Z" transform="translate(-340.786 -0.004)" fill="#fff"></path><path id="Path_34" data-name="Path 34" d="M65.451,4.271h.718v.718a1.184,1.184,0,0,0,2.368,0V4.271h.718a1.184,1.184,0,1,0,0-2.368h-.718V1.184a1.184,1.184,0,0,0-2.368,0V1.9h-.718a1.184,1.184,0,1,0,0,2.368Z" transform="translate(-59.194)" fill="#fff"></path><path id="Path_35" data-name="Path 35" d="M374.522,242.9H373.8v-.718a1.184,1.184,0,0,0-2.368,0v.718h-.718a1.184,1.184,0,0,0,0,2.368h.718v.718a1.184,1.184,0,1,0,2.368,0v-.718h.718a1.184,1.184,0,0,0,0-2.368Z" transform="translate(-340.78 -222.207)" fill="#fff"></path><path id="Path_36" data-name="Path 36" d="M10.407,183.493a1.185,1.185,0,0,0,.006-2.265,5.864,5.864,0,0,1-3.656-3.653,1.185,1.185,0,0,0-2.264-.005,5.864,5.864,0,0,1-3.652,3.656,1.185,1.185,0,0,0-.006,2.265,5.865,5.865,0,0,1,3.656,3.652,1.185,1.185,0,0,0,2.265.006A5.865,5.865,0,0,1,10.407,183.493Zm-4.784.741a8.285,8.285,0,0,0-1.874-1.874,8.285,8.285,0,0,0,1.874-1.874A8.285,8.285,0,0,0,7.5,182.36,8.289,8.289,0,0,0,5.623,184.234Z" transform="translate(0 -162.985)" fill="#fff"></path></g></g></svg>