<svg xmlns="http://www.w3.org/2000/svg" width="64" height="64" viewBox="0 0 64 64"><g id="Icon" transform="translate(-403 -1575)"><g id="Background" transform="translate(405 1577)" fill="#fff" stroke="#194c9b" stroke-width="2" stroke-dasharray="3 3"><circle cx="30" cy="30" r="30" stroke="none"></circle><circle cx="30" cy="30" r="31" fill="none"></circle></g><g id="shower" transform="translate(314.676 1592)"><g id="Group_15" data-name="Group 15" transform="translate(111.324)"><g id="Group_14" data-name="Group 14" transform="translate(0)"><path id="Path_21" data-name="Path 21" d="M127.142,10.534a5.5,5.5,0,0,0-4.673-5.156V0h-5.291V5.379a5.5,5.5,0,0,0-4.673,5.156h-1.182v5.22h17v-5.22h-1.182Zm-8.2-8.8h1.765V5.313h-1.765Zm-.907,5.313h3.579a3.755,3.755,0,0,1,3.763,3.482H114.271A3.755,3.755,0,0,1,118.035,7.052Zm8.527,6.963H113.087V12.273h13.475Z" transform="translate(-111.324)" fill="#194c9b"></path></g></g><g id="Group_17" data-name="Group 17" transform="translate(126.026 27.427)"><g id="Group_16" data-name="Group 16" transform="translate(0 0)"><rect id="Rectangle_7" data-name="Rectangle 7" width="1.739" height="1.74" transform="matrix(0.981, -0.195, 0.195, 0.981, 0, 0.339)" fill="#194c9b"></rect></g></g><g id="Group_19" data-name="Group 19" transform="translate(125.348 24.013)"><g id="Group_18" data-name="Group 18" transform="translate(0 0)"><rect id="Rectangle_8" data-name="Rectangle 8" width="1.739" height="1.74" transform="matrix(0.981, -0.195, 0.195, 0.981, 0, 0.339)" fill="#194c9b"></rect></g></g><g id="Group_21" data-name="Group 21" transform="translate(124.669 20.514)"><g id="Group_20" data-name="Group 20" transform="translate(0 0)"><rect id="Rectangle_9" data-name="Rectangle 9" width="1.739" height="1.74" transform="matrix(0.981, -0.195, 0.195, 0.981, 0, 0.339)" fill="#194c9b"></rect></g></g><g id="Group_23" data-name="Group 23" transform="translate(123.989 17.06)"><g id="Group_22" data-name="Group 22" transform="translate(0 0)"><rect id="Rectangle_10" data-name="Rectangle 10" width="1.739" height="1.74" transform="matrix(0.981, -0.195, 0.195, 0.981, 0, 0.339)" fill="#194c9b"></rect></g></g><g id="Group_25" data-name="Group 25" transform="translate(121.305 28.177)"><g id="Group_24" data-name="Group 24" transform="translate(0 0)"><rect id="Rectangle_11" data-name="Rectangle 11" width="1.739" height="1.711" transform="translate(0 0.115) rotate(-3.796)" fill="#194c9b"></rect></g></g><g id="Group_27" data-name="Group 27" transform="translate(121.075 24.765)"><g id="Group_26" data-name="Group 26" transform="translate(0 0)"><rect id="Rectangle_12" data-name="Rectangle 12" width="1.739" height="1.711" transform="matrix(0.998, -0.066, 0.066, 0.998, 0, 0.115)" fill="#194c9b"></rect></g></g><g id="Group_29" data-name="Group 29" transform="translate(120.846 21.271)"><g id="Group_28" data-name="Group 28" transform="translate(0 0)"><rect id="Rectangle_13" data-name="Rectangle 13" width="1.739" height="1.711" transform="translate(0 0.115) rotate(-3.796)" fill="#194c9b"></rect></g></g><g id="Group_31" data-name="Group 31" transform="translate(120.617 17.817)"><g id="Group_30" data-name="Group 30" transform="translate(0 0)"><rect id="Rectangle_14" data-name="Rectangle 14" width="1.739" height="1.711" transform="translate(0 0.115) rotate(-3.796)" fill="#194c9b"></rect></g></g><g id="Group_33" data-name="Group 33" transform="translate(116.495 28.178)"><g id="Group_32" data-name="Group 32" transform="translate(0 0)"><rect id="Rectangle_15" data-name="Rectangle 15" width="1.711" height="1.739" transform="translate(0 1.707) rotate(-86.204)" fill="#194c9b"></rect></g></g><g id="Group_35" data-name="Group 35" transform="translate(116.722 24.766)"><g id="Group_34" data-name="Group 34" transform="translate(0 0)"><rect id="Rectangle_16" data-name="Rectangle 16" width="1.711" height="1.739" transform="matrix(0.066, -0.998, 0.998, 0.066, 0, 1.707)" fill="#194c9b"></rect></g></g><g id="Group_37" data-name="Group 37" transform="translate(116.954 21.271)"><g id="Group_36" data-name="Group 36" transform="translate(0 0)"><rect id="Rectangle_17" data-name="Rectangle 17" width="1.711" height="1.739" transform="translate(0 1.707) rotate(-86.204)" fill="#194c9b"></rect></g></g><g id="Group_39" data-name="Group 39" transform="translate(117.183 17.818)"><g id="Group_38" data-name="Group 38" transform="translate(0 0)"><rect id="Rectangle_18" data-name="Rectangle 18" width="1.711" height="1.739" transform="translate(0 1.707) rotate(-86.204)" fill="#194c9b"></rect></g></g><g id="Group_41" data-name="Group 41" transform="translate(111.578 27.426)"><g id="Group_40" data-name="Group 40" transform="translate(0 0)"><rect id="Rectangle_19" data-name="Rectangle 19" width="1.74" height="1.739" transform="matrix(0.195, -0.981, 0.981, 0.195, 0, 1.707)" fill="#194c9b"></rect></g></g><g id="Group_43" data-name="Group 43" transform="translate(112.257 24.013)"><g id="Group_42" data-name="Group 42" transform="translate(0 0)"><rect id="Rectangle_20" data-name="Rectangle 20" width="1.74" height="1.739" transform="matrix(0.195, -0.981, 0.981, 0.195, 0, 1.707)" fill="#194c9b"></rect></g></g><g id="Group_45" data-name="Group 45" transform="translate(112.936 20.513)"><g id="Group_44" data-name="Group 44" transform="translate(0 0)"><rect id="Rectangle_21" data-name="Rectangle 21" width="1.74" height="1.739" transform="matrix(0.195, -0.981, 0.981, 0.195, 0, 1.707)" fill="#194c9b"></rect></g></g><g id="Group_47" data-name="Group 47" transform="translate(113.615 17.06)"><g id="Group_46" data-name="Group 46" transform="translate(0 0)"><rect id="Rectangle_22" data-name="Rectangle 22" width="1.74" height="1.739" transform="matrix(0.195, -0.981, 0.981, 0.195, 0, 1.707)" fill="#194c9b"></rect></g></g></g></g></svg>