<svg xmlns="http://www.w3.org/2000/svg" width="64" height="64" viewBox="0 0 64 64"><g id="Icon" transform="translate(-403 -1575)"><g id="Background" transform="translate(405 1577)" fill="#fff" stroke="#194c9b" stroke-width="2" stroke-dasharray="3 3"><circle cx="30" cy="30" r="30" stroke="none"></circle><circle cx="30" cy="30" r="31" fill="none"></circle></g><g id="pipe_2_" data-name="pipe (2)" transform="translate(419 1576.507)"><g id="Group_6" data-name="Group 6" transform="translate(0 15.493)"><g id="Group_5" data-name="Group 5"><path id="Path_17" data-name="Path 17" d="M28.247,22.983V21.52H22.423v1.464H19.44V19.238h-2.5V17.364h6.178V15.493H8.884v1.871h6.178v1.874h-2.5v3.745H10.109A10.11,10.11,0,0,0,0,33.071V45.493H8.437V33.071A1.672,1.672,0,0,1,10.109,31.4H22.423v1.464h5.823V31.4H32V22.983ZM14.435,21.109h3.129v1.874H14.435Zm7.988,8.422H16.938V27.193H15.062v2.338H10.109a3.548,3.548,0,0,0-3.547,3.54V43.622H1.875V33.071a8.235,8.235,0,0,1,8.234-8.217H22.423Zm3.948,1.464H24.3v-7.6h2.073Zm3.753-1.464H28.247V24.855h1.878Z" transform="translate(0 -15.493)" fill="#194c9b"></path></g></g><g id="Group_8" data-name="Group 8" transform="translate(12.833 32.809)"><g id="Group_7" data-name="Group 7"><path id="Path_18" data-name="Path 18" d="M209.768,296.714l-.6-.5-.6.5c-.1.086-2.564,2.136-2.564,4.692a3.167,3.167,0,1,0,6.333,0C212.331,298.849,209.872,296.8,209.768,296.714Zm-.6,5.959a1.268,1.268,0,0,1-1.267-1.267,4.391,4.391,0,0,1,1.265-2.628,4.333,4.333,0,0,1,1.268,2.628A1.268,1.268,0,0,1,209.165,302.672Z" transform="translate(-205.998 -296.218)" fill="#194c9b"></path></g></g></g></g></svg>