<svg xmlns="http://www.w3.org/2000/svg" width="64" height="64" viewBox="0 0 64 64"><g id="Icon" transform="translate(-403 -1575)"><g id="Background" transform="translate(405 1577)" fill="#fff" stroke="#194c9b" stroke-width="2" stroke-dasharray="3 3"><circle cx="30" cy="30" r="30" stroke="none"></circle><circle cx="30" cy="30" r="31" fill="none"></circle></g><g id="sink" transform="translate(420 1592)"><g id="Group_13" data-name="Group 13"><path id="Path_20" data-name="Path 20" d="M21.386,12.89V11.129H24.3V9.371H19.628V12.89H15.879V3.633a1.875,1.875,0,0,1,3.749,0V5.859h1.758V3.633a3.633,3.633,0,1,0-7.265,0V12.89H10.372V9.371H5.7v1.758H8.614V12.89H0v2.122a9.734,9.734,0,0,0,9.723,9.723h2.639v2.628a2.638,2.638,0,0,0,5.277,0V24.734h2.639A9.734,9.734,0,0,0,30,15.011V12.89H21.386ZM15.88,27.362h0a.88.88,0,0,1-1.761,0V24.734H15.88v2.628Zm12.362-12.35a7.974,7.974,0,0,1-7.965,7.965H9.723a7.974,7.974,0,0,1-7.965-7.965v-.364H28.242v.364Z" fill="#194c9b"></path></g></g></g></svg>