<svg xmlns="http://www.w3.org/2000/svg" width="80" height="80" viewBox="0 0 80 80"><g id="Icon" transform="translate(-525 -1414)"><circle id="Background" cx="40" cy="40" r="40" transform="translate(525 1414)" fill="#194c9b"></circle><path id="plumber" d="M40.5,29.218a7.027,7.027,0,0,1-11.01,5.793L24.582,40l-2.228-2.191,5.013-5.1a7.029,7.029,0,0,1,9.1-9.85l-2.449,2.491a3.968,3.968,0,0,0-.552-.04,3.909,3.909,0,1,0,3.759,2.846l2.36-2.4A6.988,6.988,0,0,1,40.5,29.218ZM11.749,32.655V40H8.625V28.021A16.823,16.823,0,0,0,3.625,40H.5A20.031,20.031,0,0,1,13.957,21.09,11.556,11.556,0,1,1,20.5,23.124a16.774,16.774,0,0,0-8.75,2.45V29.53H23.317a10.1,10.1,0,0,0,.594,3.125ZM20.5,20a8.437,8.437,0,1,0-8.437-8.437A8.447,8.447,0,0,0,20.5,20Zm0,0" transform="translate(544.5 1434)" fill="#fff"></path></g></svg>