<svg xmlns="http://www.w3.org/2000/svg" width="64" height="64" viewBox="0 0 64 64"><g id="Icon" transform="translate(-403 -1575)"><g id="Background" transform="translate(405 1577)" fill="#fff" stroke="#194c9b" stroke-width="2" stroke-dasharray="3 3"><circle cx="30" cy="30" r="30" stroke="none"></circle><circle cx="30" cy="30" r="31" fill="none"></circle></g><g id="pipe" transform="translate(420 1494)"><g id="Group_3" data-name="Group 3"><path id="Path_16" data-name="Path 16" d="M40.488,0V1.375H38.239c-5.582,0-10.123,4.252-10.123,9.477v2.105H26.648v5.46h1.469v2.105a1.678,1.678,0,0,1-3.349,0V0H16.319V20.523C16.319,25.748,20.86,30,26.442,30s10.123-4.252,10.123-9.477V18.417h1.469v-5.46H36.564V10.852a1.626,1.626,0,0,1,1.675-1.568h2.249v1.375h5.831V0Zm-5.8,20.523a8,8,0,0,1-8.245,7.72,8,8,0,0,1-8.245-7.72V1.758H22.89V20.523a3.56,3.56,0,0,0,7.1,0V18.417h4.693v2.105Zm1.469-3.863h-7.63V14.716h7.63Zm4.332-9.133H38.239a3.448,3.448,0,0,0-3.552,3.326v2.105H29.994V10.852a8,8,0,0,1,8.245-7.72h2.249V7.527ZM44.441,8.9H42.365V1.758h2.076Z" transform="translate(-16.319 98)" fill="#194c9b"></path></g></g></g></svg>