<svg xmlns="http://www.w3.org/2000/svg" width="80" height="80" viewBox="0 0 80 80"><g id="Icon" transform="translate(-525 -1414)"><circle id="Background" cx="40" cy="40" r="40" transform="translate(525 1414)" fill="#194c9b"></circle><g id="cleaning" transform="translate(534.477 1434)"><path id="Path_25" data-name="Path 25" d="M67.52,4.761,65.4,3.336,64.228.69a1.155,1.155,0,0,0-2.115,0L60.939,3.335,60.1,3.9c-.055-.008-27.344-.014-27.344-.014A1.162,1.162,0,0,0,31.6,5.052a42.549,42.549,0,0,0,.955,7.8c.888,4.768,1.727,9.271-.8,13.673a1.171,1.171,0,0,0,0,1.165,1.157,1.157,0,0,0,1,.582h6.723l1.3,4.87a6.951,6.951,0,0,0,.948,2.549,8.123,8.123,0,0,0,7.015,4.075h9.033a8.14,8.14,0,0,0,8.107-8.154V19.419A3.489,3.489,0,0,0,62.4,15.924a3.442,3.442,0,0,0-.581.05c-.08-.394-.163-.785-.244-1.17a29.117,29.117,0,0,1-.9-6.855l.26.175,1.173,2.645a1.155,1.155,0,0,0,2.115,0L65.4,8.123,67.52,6.7a1.169,1.169,0,0,0,0-1.937Zm-32.9,21.182c1.88-4.564,1.034-9.109.212-13.52a48.736,48.736,0,0,1-.882-6.206H58.412a1.165,1.165,0,0,0,.08.146,20.1,20.1,0,0,0,.293,6.275,3.449,3.449,0,0,0-2.139.086,3.472,3.472,0,0,0-6.855-.025,3.438,3.438,0,0,0-1.13-.191A3.489,3.489,0,0,0,45.186,16v6.335l-.412-.765c-1.262-2.348-3.222-2.576-4.518-2.058a3.448,3.448,0,0,0-2.02,4.1l.62,2.329h-4.24Zm28.946-6.524V31.612a5.814,5.814,0,0,1-5.791,5.825H48.738A5.806,5.806,0,0,1,43.7,34.468a1.162,1.162,0,0,0-.112-.164,5,5,0,0,1-.54-1.633c-.006-.03-.012-.06-.02-.089l-2.55-9.572a1.115,1.115,0,0,1,.639-1.331.894.894,0,0,1,.334-.066c.46,0,.916.372,1.29,1.067,1.532,2.852,1.891,3.449,2.623,4.639a1.157,1.157,0,0,0,2.143-.613V16a1.156,1.156,0,0,1,2.239-.414v6.161a1.158,1.158,0,1,0,2.316,0V13.284a1.158,1.158,0,1,1,2.316,0v8.465a1.158,1.158,0,1,0,2.316,0V16a1.158,1.158,0,1,1,2.316,0v5.747a1.158,1.158,0,1,0,2.316,0V19a1.156,1.156,0,0,1,2.239.414Zm.273-13.046a1.164,1.164,0,0,0-.414.494l-.251.567-.251-.567a1.163,1.163,0,0,0-.414-.494l-.957-.644.957-.644a1.164,1.164,0,0,0,.414-.494l.251-.567.251.567a1.164,1.164,0,0,0,.414.494l.957.644Z" transform="translate(-18.511 0)" fill="#fff"></path><path id="Path_26" data-name="Path 26" d="M19.959,385.219l-1.86-1.244-1.032-2.313a1.168,1.168,0,0,0-2.133,0L13.9,383.975l-1.86,1.244a1.168,1.168,0,0,0,0,1.942L13.9,388.4l1.032,2.313a1.168,1.168,0,0,0,2.133,0L18.1,388.4l1.86-1.244a1.168,1.168,0,0,0,0-1.942ZM16.52,386.65a1.168,1.168,0,0,0-.417.495l-.1.229-.1-.229a1.168,1.168,0,0,0-.417-.495l-.689-.46.689-.461a1.167,1.167,0,0,0,.417-.5L16,385l.1.229a1.169,1.169,0,0,0,.417.5l.689.46Z" transform="translate(0 -351.41)" fill="#fff"></path></g></g></svg>