<svg xmlns="http://www.w3.org/2000/svg" height="512pt" viewBox="0 0 511 512" width="512pt"><path d="m512.476562 373.984375c0 49.625-40.371093 89.996094-89.996093 89.996094-18.894531 0-36.441407-5.859375-50.9375-15.847657l-62.796875 63.867188-28.519532-28.042969 64.171876-65.265625c-7.578126-13.179687-11.914063-28.445312-11.914063-44.707031 0-49.625 40.375-89.996094 89.996094-89.996094 13.734375 0 26.757812 3.097657 38.414062 8.621094l-31.347656 31.882813c-2.308594-.324219-4.667969-.507813-7.066406-.507813-27.566407 0-49.996094 22.429687-49.996094 50s22.429687 49.996094 49.996094 49.996094c27.570312 0 50-22.425781 50-49.996094 0-4.707031-.667969-9.253906-1.886719-13.574219l30.203125-30.722656c7.429687 13.085938 11.679687 28.203125 11.679687 44.296875zm-367.984374 43.996094v93.996093h-39.996094v-153.304687c-39.496094 39.164063-63.996094 93.425781-63.996094 153.304687h-40c0-68.375 26.625-132.660156 74.976562-181.011718 27.882813-27.882813 61.070313-48.519532 97.277344-61.015625-38.78125-26.707031-64.257812-71.410157-64.257812-121.957031 0-81.601563 66.390625-147.992188 147.992187-147.992188 81.605469 0 147.996094 66.390625 147.996094 147.992188 0 81.605468-66.390625 147.996093-147.996094 147.996093-40.972656 0-79.316406 11.46875-111.996093 31.363281v50.632813h148.0625c.425781 13.996094 3.074218 27.441406 7.601562 39.996094zm111.996093-161.992188c59.550781 0 107.996094-48.445312 107.996094-107.996093 0-59.546876-48.445313-107.992188-107.996094-107.992188-59.546875 0-107.996093 48.445312-107.996093 107.992188 0 59.550781 48.449218 107.996093 107.996093 107.996093zm0 0"></path></svg>